<svg xmlns="http://www.w3.org/2000/svg" version="1.1" xmlns:xlink="http://www.w3.org/1999/xlink" width="200" height="200"><svg xmlns="http://www.w3.org/2000/svg" version="1.1" xmlns:xlink="http://www.w3.org/1999/xlink" viewBox="0 0 200 200"><rect width="200" height="200" fill="url('#gradient')"></rect><defs><linearGradient id="SvgjsLinearGradient1001" gradientTransform="rotate(98 0.5 0.5)"><stop offset="0%" stop-color="#4271eb"></stop><stop offset="100%" stop-color="#e5d012"></stop></linearGradient></defs><g><g fill="#ffffff" transform="matrix(3.3951450562462995,0,0,3.3951450562462995,12.353898549785697,124.13885666969756)" stroke="#ffffff" stroke-width="0"><path d="M5.75 0L1.07 0L1.07-14.22L5.65-14.22Q7.54-14.22 9.04-13.36Q10.55-12.51 11.39-10.95Q12.24-9.39 12.25-7.46L12.25-7.46L12.25-6.81Q12.25-4.85 11.42-3.31Q10.60-1.76 9.10-0.88Q7.60-0.01 5.75 0L5.75 0ZM5.65-11.57L4.50-11.57L4.50-2.64L5.69-2.64Q7.17-2.64 7.96-3.69Q8.75-4.74 8.75-6.81L8.75-6.81L8.75-7.42Q8.75-9.48 7.96-10.53Q7.17-11.57 5.65-11.57L5.65-11.57ZM22.71 0L21.88-2.66L17.18-2.66L16.36 0L12.70 0L17.91-14.22L21.13-14.22L26.39 0L22.71 0ZM19.52-10.23L18.00-5.30L21.05-5.30L19.52-10.23ZM36.33 0L35.50-2.66L30.80-2.66L29.98 0L26.32 0L31.53-14.22L34.76-14.22L40.01 0L36.33 0ZM33.14-10.23L31.62-5.30L34.68-5.30L33.14-10.23ZM50-8.30L50-5.66L44.47-5.66L44.47 0L41.04 0L41.04-14.22L50.56-14.22L50.56-11.57L44.47-11.57L44.47-8.30L50-8.30Z"></path></g></g></svg><style>@media (prefers-color-scheme: light) { :root { filter: contrast(1) brightness(1); } }
@media (prefers-color-scheme: dark) { :root { filter: none; } }
</style></svg>